<svg xmlns="http://www.w3.org/2000/svg" version="1.0" width="48" height="52" viewBox="0 0 48 52">
  <path
    stroke="#292524"
    stroke-width="1"
    fill="#133c8d"
    d="M 1 24 L 8 8 L 17 5 L 18 3 L 30 3 L 31 5 L 40 8 L 47 24 L 39 28 L 36 23 L 36 51 L 12 51 L 12 23 L 9 28 Z"
  />
  <path fill="#da264c" d="M 13.5 50.5 L 13.5 6.5 L 16.5 5.5 L 16.5 50.5 Z" />
  <path fill="#da264c" d="M 19.5 50.5 L 19.5 3.5 L 22.5 3.5 L 22.5 50.5 Z" />
  <path fill="#da264c" d="M 25.5 50.5 L 25.5 3.5 L 28.5 3.5 L 28.5 50.5 Z" />
  <path fill="#da264c" d="M 31.5 50.5 L 31.5 5.5 L 34.5 6.5 L 34.5 50.5 Z" />
  <path fill="#da264c" d="M 1 24 L 1.5 23 L 9.5 27 L 9 28 Z" />
  <path fill="#da264c" d="M 47 24 L 39 28 L 38.5 27 L 46.5 23 Z" />
</svg>
