<svg xmlns="http://www.w3.org/2000/svg" version="1.0" width="48" height="52" viewBox="0 0 48 52">
  <path
    stroke="#292524"
    stroke-width="1"
    fill="#0032a0"
    d="M 1 24 L 8 8 L 17 5 L 18 3 L 30 3 L 31 5 L 40 8 L 47 24 L 39 28 L 36 23 L 36 51 L 12 51 L 12 23 L 9 28 Z"
  />
  <path fill="#ffffff" d="M 12.5 50.5 L 12.5 23 L 10 8 L 17.5 5.5 L 30.5 5.5 L 38 8 L 35.5 23 L 35.5 50.5 Z" />
  <path fill="#0032a0" d="M 13.5 50.5 L 13.5 6.5 L 17.5 5.5 L 17.5 50.5 Z" />
  <path fill="#0032a0" d="M 19 50.5 L 19 5 L 23 5 L 23 50.5 Z" />
  <path fill="#0032a0" d="M 25 50.5 L 25 5 L 29 5 L 29 50.5 Z" />
  <path fill="#0032a0" d="M 30.5 50.5 L 30.5 5.5 L 34.5 6.5 L 34.5 50.5 Z" />
</svg>
