<svg xmlns="http://www.w3.org/2000/svg" version="1.0" width="48" height="52" viewBox="0 0 48 52">
  <path
    stroke="#292524"
    stroke-width="1"
    fill="#cd122d"
    d="M 1 24 L 8 8 L 17 5 L 18 3 L 30 3 L 31 5 L 40 8 L 47 24 L 39 28 L 36 23 L 36 51 L 12 51 L 12 23 L 9 28 Z"
  />
  <path fill="#154284" d="M 12.5 50.5 L 12.5 23 L 12.5 7 L 17.5 5 L 18 3.5 L 30 3.5 L 31 5.5 L 35.5 7 L 35.5 23 L 35.5 50.5 Z" />
  <path fill="#cd122d" d="M 15 50.5 L 15 12 L 21 10 L 21 50.5 Z" />
  <path fill="#cd122d" d="M 27 50.5 L 27 10 L 33 12 L 33 50.5 Z" />
</svg>
