<svg xmlns="http://www.w3.org/2000/svg" version="1.0" width="48" height="52" viewBox="0 0 48 52">
  <path
    stroke="#292524"
    stroke-width="1"
    fill="#fff"
    d="M 1 24 L 8 8 L 17 5 L 18 3 L 30 3 L 31 5 L 40 8 L 47 24 L 39 28 L 36 23 L 36 51 L 12 51 L 12 23 L 9 28 Z"
  />
  <path fill="#fee41d" d="M 6.75 12 L 8.5 8.25 L 17.5 5.5 L 18 3.5 L 30 3.5 L 30.5 5.5 L 39.5 8.25 L 41.25 12 L 40 12.5 L 38.5 9.5 L 29.75 6.75 L 29 4.5 L 19 4.5 L 18.25 6.75 L 9.5 9.5 L 8 12.5 Z" />
  <path fill="#000" d="M 1 24 L 2 22 L 10 26 L 9 28 Z" />
  <path fill="#000" d="M 47 24 L 39 28 L 38 26 L 46 22 Z" />
</svg>
