<svg xmlns="http://www.w3.org/2000/svg" version="1.0" width="48" height="52" viewBox="0 0 48 52">
  <path
    stroke="#292524"
    stroke-width="1"
    fill="#d71921"
    d="M 1 24 L 8 8 L 17 5 L 18 3 L 30 3 L 31 5 L 40 8 L 47 24 L 39 28 L 36 23 L 37 51 L 11 51 L 12 23 L 9 28 Z"
  />
  <path fill="#292524" d="M 3 25 L 9 12 L 12 14 L 6 26.5 Z" />
  <path fill="#292524" d="M 11 51 L 12.5 23 L 9 27 L 9 7.5 L 12.5 7 L 12.5 51 Z" />
  <path fill="#292524" d="M 15 51 L 15 6 L 17 5 L 19 2.5 L 19 51 Z" />
  <path fill="#292524" d="M 22 51 L 22 3.5 L 26 3.5 L 26 51 Z" />
  <path fill="#292524" d="M 29 51 L 29 2.5 L 31 5 L 33 6 L 33 51 Z" />
  <path fill="#292524" d="M 37 51 L 35.5 23 L 39 27 L 39 7.5 L 35.5 7 L 35.5 51 Z" />
  <path fill="#292524" d="M 45 25 L 39 12 L 36 14 L 42 26.5 Z" />
</svg>
