<svg xmlns="http://www.w3.org/2000/svg" version="1.0" width="48" height="52" viewBox="0 0 48 52">
  <path
    stroke="#000000"
    stroke-width="1"
    fill="#c10000"
    d="M 1 24 L 8 8 L 17 5 L 18 3 L 30 3 L 31 5 L 40 8 L 47 24 L 39 28 L 36 23 L 37 51 L 11 51 L 12 23 L 9 28 Z"
  />
  <path fill="#fff" d="M 11.5 50.5 L 12.5 23 L 10 10 L 19 7 L 29 7 L 38 10 L 35.5 23 L 36.5 50.5 Z" />
  <path fill="#c10000" d="M 16 50.5 L 16 6 L 21 6 L 21 50.5 Z" />
  <path fill="#c10000" d="M 27 50.5 L 27 6 L 32 6 L 32 50.5 Z" />
</svg>
