<svg xmlns="http://www.w3.org/2000/svg" version="1.0" width="48" height="52" viewBox="0 0 48 52">
  <path
    stroke="#292524"
    stroke-width="1"
    fill="#fa4616"
    d="M 1 24 L 8 8 L 17 5 L 18 3 L 30 3 L 31 5 L 40 8 L 47 24 L 39 28 L 36 23 L 37 51 L 11 51 L 12 23 L 9 28 Z"
  />
  <path fill="#fff" d="M 29 50.5 L 29 3.5 L 29.75 3.5 L 30.75 5.25 L 34.25 6.5 L 34.25 50.5 Z" />
  <path fill="#000" d="M 34.25 50.5 L 34.25 6.5 L 35 6.75 L 35 50.5 Z" />
  <path fill="#292524" d="M 1 24 L 2 22 L 10 26 L 9 28 Z" />
  <path fill="#292524" d="M 47 24 L 39 28 L 38 26 L 46 22 Z" />
</svg>
