<svg xmlns="http://www.w3.org/2000/svg" version="1.0" width="38" height="59" fill="#ffffff">
  <defs/>
  <path stroke="#292524" stroke-width="1" fill="#ffffff" stroke-linecap="round" stroke-linejoin="round" d="M 6.5 5.5 L 10.5 5.5 C 10.5 5.5 11.374572 11.5 17.5 11.5 L 20.5 11.5 C 26.75125 11.5 27.5 5.5 27.5 5.5 L 31.5 5.5 L 31.5 13.5 C 31.5 21.137541 37.5 26.5 37.5 26.5 L 37.5 58.5 L 0.5 58.5 L 0.5 26.5 C 0.5 26.5 6.5 21.387472 6.5 13.5 L 6.5 5.5 z" />
  <path stroke="#ed174c" stroke-width="1" fill="#002B5C" stroke-linecap="round" stroke-linejoin="round" d="M 8.5 7.5 L 9 7.5 C 9 7.5 11.374572 13.5 17.5 13.5 L 21.5 13.5 C 26.75125 13.5 28.5 7.5 29 7.5 L 29.5 7.5 L 29.5 13.5 C 29.5 21.137541 34.5 26.5 35.5 27.5 L 35.5 56.6 L 2.5 56.5 L 2.5 27.5 C 2 27.5 8.5 21.387472 8.5 13.5 L 8.5 7.5 z" />
</svg>
