<svg xmlns="http://www.w3.org/2000/svg" version="1.0" width="48" height="52" viewBox="0 0 48 52">
  <path
    stroke="#292524"
    stroke-width="1"
    fill="#003a86"
    d="M 1 24 L 8 8 L 17 5 L 18 3 L 30 3 L 31 5 L 40 8 L 47 24 L 39 28 L 36 23 L 36 51 L 12 51 L 12 23 L 9 28 Z"
  />
  <path fill="#002f6c" d="M 15 50.5 L 15 6 L 17 5 L 19 2.5 L 19 50.5 Z" />
  <path fill="#002f6c" d="M 22 50.5 L 22 3.5 L 26 3.5 L 26 50.5 Z" />
  <path fill="#002f6c" d="M 29 50.5 L 29 2.5 L 31 5 L 33 6 L 33 50.5 Z" />
  <path fill="#F7DD00" d="M 1 24 L 2 22 L 10 26 L 9 28 Z" />
  <path fill="#F7DD00" d="M 47 24 L 39 28 L 38 26 L 46 22 Z" />
</svg>
